<svg xmlns="http://www.w3.org/2000/svg" width="280" height="105" fill="none" viewBox="0 0 280 105">
  <path fill="#F1F1F1" d="M27.634 39.818V66h-4.782l-11.39-16.479h-.192V66H5.735V39.818h4.857l11.302 16.466h.23V39.818h5.51Zm13.42 26.566c-2.02 0-3.759-.41-5.216-1.228-1.449-.827-2.566-1.994-3.35-3.503-.784-1.517-1.176-3.31-1.176-5.382 0-2.02.392-3.792 1.177-5.318.784-1.525 1.887-2.714 3.31-3.567 1.432-.852 3.111-1.278 5.038-1.278 1.295 0 2.5.209 3.617.626a8.026 8.026 0 0 1 2.94 1.854c.845.827 1.5 1.867 1.97 3.12.468 1.244.703 2.701.703 4.372v1.495H33.486V54.2H44.94c0-.784-.17-1.478-.511-2.084a3.664 3.664 0 0 0-1.42-1.419c-.596-.349-1.29-.524-2.083-.524-.827 0-1.56.192-2.199.576a4.034 4.034 0 0 0-1.483 1.52 4.297 4.297 0 0 0-.55 2.11v3.21c0 .97.18 1.81.537 2.517a3.93 3.93 0 0 0 1.547 1.637c.665.383 1.453.575 2.365.575a5.16 5.16 0 0 0 1.662-.255 3.448 3.448 0 0 0 1.291-.768c.358-.34.631-.758.819-1.252l5.037.332a6.879 6.879 0 0 1-1.573 3.17c-.784.895-1.798 1.594-3.042 2.097-1.236.494-2.664.742-4.283.742Zm16.766-20.02 3.605 6.865 3.695-6.865h5.587l-5.69 9.818L70.86 66h-5.561l-3.874-6.788L57.615 66h-5.624l5.83-9.818-5.626-9.818h5.625Zm26.565 0v4.09H72.56v-4.09h11.825Zm-9.14-4.705h5.446v18.307c0 .503.077.895.23 1.176.153.273.366.464.64.575.28.111.604.166.97.166.256 0 .512-.02.768-.063.255-.051.451-.09.588-.115l.856 4.052c-.272.085-.656.183-1.15.294-.495.12-1.095.192-1.803.218-1.312.05-2.463-.124-3.451-.525-.98-.4-1.743-1.022-2.289-1.866-.545-.844-.814-1.91-.805-3.196V41.659ZM102.26 66l-7.492-26.182h6.047l4.334 18.192h.217l4.782-18.192h5.177l4.769 18.23h.23l4.334-18.23h6.046L123.214 66h-5.395l-4.986-17.118h-.204L107.656 66h-5.395Zm34.795.37c-1.253 0-2.369-.217-3.35-.651-.98-.443-1.755-1.095-2.326-1.956-.563-.87-.844-1.952-.844-3.247 0-1.091.2-2.008.601-2.749.4-.741.946-1.338 1.636-1.79a7.95 7.95 0 0 1 2.353-1.022c.886-.23 1.815-.392 2.786-.486 1.143-.12 2.063-.23 2.762-.333.699-.11 1.206-.272 1.521-.485.315-.214.473-.529.473-.947v-.076c0-.81-.256-1.436-.767-1.88-.503-.443-1.219-.664-2.148-.664-.98 0-1.76.217-2.339.652-.58.426-.963.963-1.151 1.61l-5.037-.408c.256-1.194.759-2.225 1.509-3.094.75-.878 1.717-1.551 2.902-2.02 1.193-.477 2.574-.716 4.142-.716 1.091 0 2.135.128 3.132.384a8.2 8.2 0 0 1 2.672 1.188 5.783 5.783 0 0 1 1.854 2.071c.451.836.677 1.837.677 3.005V66h-5.165v-2.723h-.153a5.529 5.529 0 0 1-1.266 1.624c-.528.46-1.163.822-1.904 1.086-.742.256-1.598.384-2.57.384Zm1.56-3.758c.801 0 1.508-.157 2.122-.473a3.759 3.759 0 0 0 1.444-1.304c.35-.545.524-1.163.524-1.854v-2.083a2.9 2.9 0 0 1-.703.306c-.289.086-.618.167-.984.243-.366.069-.733.133-1.099.192l-.998.14a6.73 6.73 0 0 0-1.674.448c-.478.205-.848.482-1.113.831-.264.341-.396.767-.396 1.279 0 .741.269 1.308.806 1.7.545.383 1.235.575 2.071.575Zm24.168-16.248v4.09h-11.825v-4.09h11.825Zm-9.141-4.705h5.446v18.307c0 .503.077.895.23 1.176.154.273.367.464.64.575.281.111.605.166.971.166.256 0 .512-.02.767-.063.256-.051.452-.09.588-.115l.857 4.052a15.31 15.31 0 0 1-1.151.294c-.494.12-1.095.192-1.802.218-1.313.05-2.463-.124-3.452-.525-.98-.4-1.743-1.022-2.288-1.866-.546-.844-.814-1.91-.806-3.196V41.659Zm21.35 24.724c-2.012 0-3.742-.426-5.191-1.278-1.44-.86-2.548-2.054-3.323-3.58-.768-1.525-1.151-3.28-1.151-5.267 0-2.01.388-3.775 1.163-5.292.784-1.526 1.897-2.715 3.337-3.567 1.44-.86 3.153-1.291 5.139-1.291 1.713 0 3.213.311 4.5.933 1.287.622 2.306 1.496 3.056 2.62.75 1.126 1.163 2.447 1.24 3.964h-5.14c-.144-.98-.528-1.769-1.15-2.365-.614-.605-1.419-.908-2.416-.908-.844 0-1.581.23-2.212.69-.622.452-1.108 1.113-1.457 1.982-.35.87-.525 1.922-.525 3.158 0 1.253.171 2.318.512 3.196.349.878.839 1.547 1.47 2.007.631.46 1.368.69 2.212.69.622 0 1.18-.128 1.674-.383a3.228 3.228 0 0 0 1.24-1.112c.333-.495.55-1.087.652-1.777h5.14c-.086 1.5-.495 2.82-1.228 3.963-.724 1.133-1.726 2.02-3.004 2.659-1.278.639-2.791.959-4.538.959Zm17.702-11.735V66h-5.446V39.818h5.293v10.01h.23c.443-1.159 1.159-2.067 2.148-2.723.989-.665 2.229-.997 3.72-.997 1.364 0 2.553.298 3.567.895 1.023.588 1.815 1.436 2.378 2.544.571 1.1.852 2.416.843 3.95V66h-5.446V54.469c.009-1.21-.298-2.152-.92-2.825-.614-.674-1.474-1.01-2.582-1.01-.742 0-1.398.157-1.969.472a3.352 3.352 0 0 0-1.33 1.381c-.315.597-.477 1.317-.486 2.16Z"/>
  <path stroke="#F1F1F1" stroke-linecap="round" stroke-linejoin="round" stroke-width="3" d="m210.721 42.156 8.593 36.407a2.545 2.545 0 0 0 2.446 1.938h36.192a2.55 2.55 0 0 0 1.558-.55 2.53 2.53 0 0 0 .888-1.388l8.594-36.407a2.532 2.532 0 0 0-.72-2.38 2.537 2.537 0 0 0-2.417-.62L252.401 43l-11.604-4.625a2.453 2.453 0 0 0-1.882 0L227.312 43l-13.455-3.844a2.55 2.55 0 0 0-2.417.62 2.533 2.533 0 0 0-.719 2.38v0Zm16.591.844 5.018 37.5M252.401 43l-5.017 37.5"/>
  <path stroke="#F1F1F1" stroke-linecap="round" stroke-linejoin="round" stroke-width="3" d="M267.455 39.25a11.217 11.217 0 0 0-1.462-5.541 11.268 11.268 0 0 0-4.011-4.105 11.32 11.32 0 0 0-11.117-.292 11.216 11.216 0 0 0-3.932-6.37 11.286 11.286 0 0 0-14.153 0 11.21 11.21 0 0 0-3.931 6.37 11.325 11.325 0 0 0-11.117.292 11.263 11.263 0 0 0-4.012 4.105 11.217 11.217 0 0 0-1.462 5.54"/>
</svg>
