<?xml version="1.0" encoding="UTF-8" standalone="no" ?>
<!DOCTYPE svg PUBLIC "-//W3C//DTD SVG 1.1//EN" "http://www.w3.org/Graphics/SVG/1.1/DTD/svg11.dtd">
<svg xmlns="http://www.w3.org/2000/svg" xmlns:xlink="http://www.w3.org/1999/xlink" version="1.1" width="1080" height="1080" viewBox="0 0 1080 1080" xml:space="preserve">
<desc>Created with Fabric.js 5.2.4</desc>
<defs>
</defs>
<g transform="matrix(1 0 0 1 540 540)" id="a463666c-3aed-4734-a4ed-5bdb2468e045"  >
<rect style="stroke: none; stroke-width: 1; stroke-dasharray: none; stroke-linecap: butt; stroke-dashoffset: 0; stroke-linejoin: miter; stroke-miterlimit: 4; fill: rgb(255,255,255); fill-rule: nonzero; opacity: 1; visibility: hidden;" vector-effect="non-scaling-stroke"  x="-540" y="-540" rx="0" ry="0" width="1080" height="1080" />
</g>
<g transform="matrix(1 0 0 1 540 540)" id="46ad9cc6-2bd6-4c20-861e-bce3293eff76"  >
</g>
<g transform="matrix(45 0 0 45 540 540)"  >
<path style="stroke: rgb(0,0,0); stroke-width: 0; stroke-dasharray: none; stroke-linecap: butt; stroke-dashoffset: 0; stroke-linejoin: miter; stroke-miterlimit: 4; fill: rgb(0,0,0); fill-rule: nonzero; opacity: 1;"  transform=" translate(-12, -12)" d="M 16.71 0.243 L 16.59 2.953 C 16.58702380756636 3.0229871252224987 16.624921360904256 3.088343989216453 16.687141342302347 3.120526738215464 C 16.749361323700434 3.152709487214475 16.82460087766937 3.14587181665509 16.88 3.1029999999999998 L 17.939999999999998 2.303 L 18.839999999999996 3.003 C 18.893793119950338 3.039072637352327 18.962818689296558 3.043463738754943 19.020749233361286 3.0144984667225785 C 19.078679777426014 2.9855331946902144 19.116582237911654 2.92767807837167 19.119999999999997 2.863 L 19.019999999999996 0.1030000000000002 L 20.349999999999994 0.003000000000000197 C 20.681711981082966 -0.01888596817228138 21.0076398139177 0.09781275880799808 21.250073517884363 0.3252720588549092 C 21.49250722185103 0.5527313589018202 21.629721221225136 0.8705675800455496 21.628999999999994 1.203 L 21.628999999999994 22.799 C 21.62941143738895 23.12793350719268 21.49478056130915 23.442615630834933 21.256587145629403 23.669466502910883 C 21.018393729949658 23.89631737498683 20.697522327121163 24.01544694554295 20.368999999999993 23.999 L 4.272999999999993 23.279 C 3.645044230092147 23.253144744960917 3.1434175413812757 22.747156085043866 3.1229999999999927 22.119 L 2.3729999999999927 2.321999999999999 C 2.3538834081306157 2.003606038793293 2.4623144920675903 1.6907016351336708 2.6743412903440165 1.4524060299911388 C 2.8863680886204426 1.2141104248486065 3.1845428326100005 1.070033057298763 3.5029999999999926 1.0519999999999994 L 16.7 0.222 z M 13.64 9.3 C 13.64 9.770000000000001 16.8 9.540000000000001 17.23 9.22 C 17.23 6.0200000000000005 15.51 4.330000000000001 12.371 4.330000000000001 C 9.221 4.330000000000001 7.472 6.050000000000001 7.472 8.620000000000001 C 7.472 13.07 13.471 13.150000000000002 13.471 15.579 C 13.471 16.279 13.151 16.679000000000002 12.421 16.679000000000002 C 11.460999999999999 16.679000000000002 11.071 16.189000000000004 11.120999999999999 14.519000000000002 C 11.120999999999999 14.159000000000002 7.471999999999999 14.039000000000001 7.3519999999999985 14.519000000000002 C 7.081999999999999 18.549000000000003 9.581999999999999 19.719 12.450999999999999 19.719 C 15.241 19.719 17.419999999999998 18.229000000000003 17.419999999999998 15.539000000000001 C 17.419999999999998 10.769000000000002 11.320999999999998 10.899000000000001 11.320999999999998 8.540000000000003 C 11.320999999999998 7.570000000000003 12.040999999999999 7.440000000000003 12.450999999999997 7.440000000000003 C 12.900999999999996 7.440000000000003 13.700999999999997 7.510000000000003 13.640999999999996 9.310000000000002 z" stroke-linecap="round" />
</g>
</svg>